<svg width="382" height="388" viewBox="0 0 382 388" fill="none" xmlns="http://www.w3.org/2000/svg">
<mask id="mask0_30_143" style="mask-type:luminance" maskUnits="userSpaceOnUse" x="79" y="173" width="40" height="52">
<path d="M118.038 173.048H79.456V224.264H118.038V173.048Z" fill="white"/>
</mask>
<g mask="url(#mask0_30_143)">
<path fill-rule="evenodd" clip-rule="evenodd" d="M101.351 176.54C94.349 176.54 88.6634 182.628 88.6634 190.116C88.6634 197.604 94.349 203.7 101.351 203.7C108.353 203.7 114.039 197.604 114.039 190.116C114.039 182.628 108.353 176.54 101.351 176.54ZM82.1816 183.686C82.0903 183.685 81.9998 183.704 81.9153 183.741C81.8309 183.778 81.7541 183.832 81.6892 183.9C81.6242 183.968 81.5727 184.05 81.5375 184.139C81.5024 184.229 81.4841 184.324 81.4837 184.421C81.4833 184.519 81.5012 184.615 81.536 184.705C81.5712 184.795 81.6223 184.877 81.6873 184.946C81.7522 185.015 81.8294 185.07 81.9142 185.107C81.999 185.144 82.0899 185.163 82.1816 185.162H85.7124C85.8041 185.163 85.895 185.144 85.9798 185.107C86.065 185.07 86.1418 185.015 86.2067 184.946C86.2717 184.877 86.3232 184.795 86.358 184.705C86.3931 184.615 86.4107 184.519 86.4103 184.421C86.4099 184.324 86.3916 184.229 86.3565 184.139C86.3213 184.05 86.2698 183.968 86.2048 183.9C86.1403 183.832 86.0631 183.778 85.9787 183.741C85.8942 183.704 85.8037 183.685 85.7124 183.686H82.1816ZM100.828 183.686C100.92 183.686 101.01 183.706 101.094 183.743C101.178 183.78 101.255 183.835 101.319 183.904C101.384 183.973 101.434 184.054 101.469 184.144C101.504 184.234 101.521 184.33 101.521 184.427V191.671H106.428C106.519 191.671 106.609 191.689 106.694 191.726C106.778 191.763 106.855 191.817 106.92 191.885C106.984 191.954 107.036 192.035 107.072 192.124C107.107 192.214 107.125 192.309 107.125 192.406C107.126 192.504 107.108 192.6 107.073 192.69C107.038 192.781 106.987 192.863 106.922 192.931C106.857 193 106.78 193.055 106.695 193.092C106.61 193.129 106.519 193.148 106.428 193.148H100.828C100.736 193.148 100.646 193.129 100.561 193.092C100.476 193.055 100.399 193 100.334 192.931C100.269 192.863 100.218 192.781 100.183 192.69C100.148 192.6 100.13 192.504 100.13 192.406V184.427C100.13 184.329 100.148 184.233 100.183 184.143C100.218 184.053 100.269 183.971 100.334 183.902C100.399 183.833 100.476 183.779 100.561 183.742C100.646 183.704 100.736 183.685 100.828 183.686ZM78.2138 189.381C78.1221 189.38 78.0319 189.399 77.9471 189.436C77.8627 189.473 77.7859 189.527 77.721 189.595C77.6564 189.663 77.6048 189.744 77.5697 189.834C77.5342 189.924 77.5158 190.019 77.5155 190.116C77.5151 190.214 77.533 190.31 77.5678 190.4C77.6029 190.491 77.6541 190.572 77.7191 190.641C77.784 190.71 77.8612 190.765 77.946 190.802C78.0308 190.839 78.1217 190.858 78.2138 190.858H85.7124C85.8041 190.858 85.895 190.839 85.9798 190.802C86.065 190.765 86.1418 190.71 86.2067 190.641C86.2717 190.572 86.3232 190.491 86.358 190.4C86.3931 190.31 86.4107 190.214 86.4103 190.116C86.4099 190.019 86.3916 189.924 86.3565 189.834C86.3213 189.744 86.2698 189.663 86.2048 189.595C86.1403 189.527 86.0631 189.473 85.9787 189.436C85.8942 189.399 85.8037 189.38 85.7124 189.381H78.2138ZM74.4002 195.077C74.3086 195.077 74.2177 195.096 74.1329 195.133C74.048 195.17 73.9709 195.225 73.9059 195.294C73.841 195.363 73.7898 195.444 73.7547 195.535C73.7199 195.625 73.702 195.721 73.7023 195.819C73.7031 196.014 73.7768 196.202 73.9079 196.34C74.0389 196.478 74.2157 196.555 74.4002 196.554H85.7124C85.8969 196.555 86.0738 196.478 86.2048 196.34C86.3358 196.202 86.4096 196.014 86.4103 195.819C86.4107 195.721 86.3931 195.625 86.358 195.535C86.3232 195.444 86.2717 195.363 86.2067 195.294C86.1418 195.225 86.065 195.17 85.9798 195.133C85.895 195.096 85.8041 195.077 85.7124 195.077H74.4002Z" fill="#ED4B4B"/>
</g>
<path d="M136.216 187.734C136.216 191.672 133.274 194.66 126.991 194.66H122.578V198.869C122.578 199.413 122.177 199.82 121.643 199.82H117.632C117.097 199.82 116.696 199.413 116.696 198.869V181.759C116.696 181.215 117.097 180.808 117.632 180.808H126.991C133.274 180.808 136.216 183.796 136.216 187.734ZM122.578 190.314H126.991C128.996 190.314 130.066 189.228 130.066 187.734C130.066 186.24 128.996 185.154 126.991 185.154H122.578V190.314ZM156.273 181.759V184.475C156.273 185.018 155.872 185.425 155.337 185.425H149.722V198.869C149.722 199.413 149.321 199.82 148.786 199.82H144.775C144.24 199.82 143.839 199.413 143.839 198.869V185.425H138.224C137.689 185.425 137.288 185.018 137.288 184.475V181.759C137.288 181.215 137.689 180.808 138.224 180.808H155.337C155.872 180.808 156.273 181.215 156.273 181.759ZM170.451 181.759V184.475C170.451 185.018 170.05 185.425 169.516 185.425H166.975V195.203H169.516C170.05 195.203 170.451 195.61 170.451 196.153V198.869C170.451 199.413 170.05 199.82 169.516 199.82H158.552C158.017 199.82 157.616 199.413 157.616 198.869V196.153C157.616 195.61 158.017 195.203 158.552 195.203H161.092V185.425H158.552C158.017 185.425 157.616 185.018 157.616 184.475V181.759C157.616 181.215 158.017 180.808 158.552 180.808H169.516C170.05 180.808 170.451 181.215 170.451 181.759Z" fill="#ED4B4B"/>
<path d="M193.577 189.907V192.215C193.577 196.561 189.833 200.363 183.549 200.363C176.463 200.363 172.586 196.425 172.586 190.314C172.586 184.203 176.463 180.265 183.549 180.265C189.833 180.265 193.175 183.66 193.175 186.512C193.175 187.191 192.748 187.598 192.106 187.598H188.763C188.095 187.598 187.56 187.055 187.159 186.512C186.49 185.561 185.662 184.746 183.549 184.746C180.608 184.746 178.736 186.647 178.736 190.314C178.736 193.981 180.608 195.882 183.549 195.882C186.089 195.882 187.159 194.66 187.694 193.302H184.699C184.164 193.302 183.763 192.894 183.763 192.351V189.907C183.763 189.363 184.164 188.956 184.699 188.956H192.641C193.175 188.956 193.577 189.363 193.577 189.907ZM214.969 181.759V184.475C214.969 185.018 214.567 185.425 214.033 185.425H202.668V187.87H211.091C211.626 187.87 212.027 188.277 212.027 188.82V191.536C212.027 192.079 211.626 192.487 211.091 192.487H202.668V195.203H214.033C214.567 195.203 214.969 195.61 214.969 196.153V198.869C214.969 199.413 214.567 199.82 214.033 199.82H197.721C197.186 199.82 196.785 199.413 196.785 198.869V181.759C196.785 181.215 197.186 180.808 197.721 180.808H214.033C214.567 180.808 214.969 181.215 214.969 181.759ZM223.392 186.376C223.392 189.092 236.361 186.512 236.361 194.116C236.361 197.376 233.42 200.363 226.601 200.363C219.649 200.363 216.707 197.376 216.707 194.388C216.707 193.709 217.109 193.302 217.777 193.302H221.12C221.922 193.302 222.35 193.736 222.724 194.388C223.125 195.067 223.927 195.882 226.601 195.882C229.275 195.882 230.211 194.931 230.211 194.116C230.211 191.4 217.242 193.981 217.242 186.376C217.242 183.117 220.05 180.265 226.601 180.265C232.751 180.265 235.693 183.252 235.693 185.968C235.693 186.647 235.292 187.055 234.623 187.055H231.281C230.479 187.055 230.051 186.647 229.676 185.968C229.436 185.561 228.607 184.746 226.601 184.746C224.195 184.746 223.392 185.561 223.392 186.376ZM256.026 181.759V184.475C256.026 185.018 255.625 185.425 255.09 185.425H249.475V198.869C249.475 199.413 249.074 199.82 248.539 199.82H244.528C243.993 199.82 243.592 199.413 243.592 198.869V185.425H237.976C237.442 185.425 237.041 185.018 237.041 184.475V181.759C237.041 181.215 237.442 180.808 237.976 180.808H255.09C255.625 180.808 256.026 181.215 256.026 181.759ZM270.204 181.759V184.475C270.204 185.018 269.803 185.425 269.268 185.425H266.728V195.203H269.268C269.803 195.203 270.204 195.61 270.204 196.153V198.869C270.204 199.413 269.803 199.82 269.268 199.82H258.305C257.77 199.82 257.369 199.413 257.369 198.869V196.153C257.369 195.61 257.77 195.203 258.305 195.203H260.845V185.425H258.305C257.77 185.425 257.369 185.018 257.369 184.475V181.759C257.369 181.215 257.77 180.808 258.305 180.808H269.268C269.803 180.808 270.204 181.215 270.204 181.759ZM283.302 195.882C286.243 195.882 288.115 193.981 288.115 190.314C288.115 186.647 286.243 184.746 283.302 184.746C280.36 184.746 278.488 186.647 278.488 190.314C278.488 193.981 280.36 195.882 283.302 195.882ZM283.302 180.265C290.388 180.265 294.265 184.203 294.265 190.314C294.265 196.425 290.388 200.363 283.302 200.363C276.215 200.363 272.338 196.425 272.338 190.314C272.338 184.203 276.215 180.265 283.302 180.265ZM311.115 191.672H311.383V181.759C311.383 181.215 311.784 180.808 312.319 180.808H316.33C316.864 180.808 317.266 181.215 317.266 181.759V198.869C317.266 199.413 316.864 199.82 316.33 199.82H311.784C311.115 199.82 310.581 199.277 310.313 198.869L303.628 188.956H303.361V198.869C303.361 199.413 302.96 199.82 302.425 199.82H298.414C297.879 199.82 297.478 199.413 297.478 198.869V181.759C297.478 181.215 297.879 180.808 298.414 180.808H302.96C303.628 180.808 304.163 181.351 304.43 181.759L311.115 191.672Z" fill="#1287D6"/>
</svg>
